<?xml version="1.0" standalone="no"?>
<!DOCTYPE svg PUBLIC "-//W3C//DTD SVG 20010904//EN"
 "http://www.w3.org/TR/2001/REC-SVG-20010904/DTD/svg10.dtd">
<svg version="1.0" xmlns="http://www.w3.org/2000/svg"
 width="1664.000000pt" height="1664.000000pt" viewBox="0 0 1664.000000 1664.000000"
 preserveAspectRatio="xMidYMid meet">
<metadata>
Created by potrace 1.14, written by Peter Selinger 2001-2017
</metadata>
<g transform="translate(0.000000,1664.000000) scale(0.100000,-0.100000)"
fill="#000000" stroke="none">
<path d="M1569 12576 c-2 -2 -22 -6 -44 -9 -71 -10 -95 -15 -185 -36 -137 -32
-393 -135 -412 -164 -4 -7 -8 -8 -8 -4 0 5 -13 -1 -29 -12 -16 -12 -32 -21
-35 -21 -6 0 -86 -50 -96 -60 -3 -3 -27 -21 -55 -40 -86 -59 -251 -216 -295
-280 -13 -19 -29 -39 -36 -45 -6 -5 -30 -39 -54 -75 -24 -36 -51 -77 -61 -92
-10 -14 -20 -32 -21 -40 -2 -7 -6 -15 -9 -18 -10 -9 -79 -160 -79 -173 0 -7
-4 -17 -9 -22 -5 -6 -21 -48 -36 -95 -15 -47 -30 -89 -34 -95 -3 -5 -6 -14 -7
-20 -1 -5 -7 -30 -14 -55 -12 -45 -16 -63 -25 -112 -37 -204 -23 -504 35 -719
7 -24 13 -51 15 -59 17 -82 123 -321 188 -422 22 -35 32 -62 30 -78 -3 -14 -6
-1218 -7 -2676 -3 -2460 -2 -2655 14 -2715 35 -135 103 -215 232 -274 74 -34
99 -37 303 -36 254 0 1841 0 1952 0 120 -1 225 30 289 84 46 39 84 81 84 93 0
8 4 14 8 14 11 0 30 41 52 112 15 48 18 99 19 335 0 153 0 287 1 298 0 17 2
17 17 -5 9 -14 22 -30 28 -36 5 -7 26 -31 45 -55 71 -87 267 -274 319 -303 9
-5 18 -12 21 -16 10 -12 140 -100 149 -100 5 0 11 -3 13 -8 7 -16 319 -182
342 -182 3 0 29 -11 58 -24 29 -13 89 -34 133 -47 44 -12 86 -27 93 -32 6 -5
12 -7 12 -3 0 3 11 1 25 -4 53 -20 297 -80 390 -96 11 -1 47 -8 80 -14 61 -11
85 -15 165 -24 25 -3 61 -8 81 -11 40 -7 100 -13 199 -21 36 -2 90 -6 120 -9
213 -17 329 -20 760 -19 267 1 510 4 540 8 30 4 75 9 100 11 75 8 123 14 170
20 47 6 210 32 246 39 12 2 39 7 60 10 58 9 157 32 364 82 102 25 191 46 198
47 6 0 12 5 12 10 0 6 3 8 6 4 3 -3 25 1 47 10 23 8 47 16 52 17 14 4 45 16
85 32 20 9 43 16 52 18 9 1 22 7 29 13 8 6 25 14 39 18 62 18 331 164 429 233
l24 16 -19 -34 c-10 -19 -18 -37 -19 -40 -1 -6 -51 -107 -65 -130 -41 -70
-150 -305 -146 -316 4 -10 12 -11 28 -6 28 9 89 9 105 -1 6 -4 14 -4 17 1 6 9
47 8 64 -2 7 -4 17 -4 24 0 16 10 78 12 78 2 0 -3 12 -3 28 0 34 9 94 8 109
-1 6 -4 14 -4 17 1 6 9 47 8 64 -2 7 -4 17 -4 24 0 16 10 78 12 78 2 0 -3 12
-3 28 0 34 9 94 8 109 -1 6 -4 14 -4 17 1 6 9 47 8 64 -2 7 -4 17 -4 24 0 16
10 78 12 78 2 0 -3 12 -3 28 0 34 9 94 8 109 -1 6 -4 14 -4 17 1 6 9 47 8 64
-2 7 -4 17 -4 24 0 16 10 78 12 78 2 0 -3 12 -3 28 0 34 9 94 8 109 -1 6 -4
14 -4 17 1 6 9 47 8 64 -2 7 -4 17 -4 24 0 16 10 78 12 78 2 0 -3 12 -3 28 0
34 9 94 8 109 -1 6 -4 14 -4 17 1 6 9 47 8 64 -2 7 -4 17 -4 24 0 16 10 78 12
78 2 0 -3 12 -3 28 0 34 9 94 8 109 -1 6 -4 14 -4 17 1 6 9 47 8 64 -2 7 -4
17 -4 24 0 16 10 78 12 78 2 0 -3 12 -3 28 0 34 9 94 8 109 -1 6 -4 14 -4 17
1 6 9 47 8 64 -2 7 -4 17 -4 23 0 7 4 41 8 77 10 36 1 75 7 86 12 12 6 43 20
71 33 71 33 182 149 190 199 0 3 6 14 12 25 6 11 12 25 13 30 1 6 8 25 16 44
8 18 14 37 14 40 0 7 13 41 55 146 4 11 9 25 11 30 6 23 76 212 89 240 l14 30
888 0 c488 0 893 -4 899 -7 6 -4 19 -29 29 -55 10 -26 27 -68 37 -93 32 -72
88 -217 92 -235 2 -5 8 -21 14 -35 6 -14 22 -57 37 -97 63 -171 223 -296 394
-307 31 -2 61 -5 66 -6 6 -1 12 -1 15 0 14 6 80 5 80 -2 0 -3 12 -3 28 0 35 9
94 8 110 -2 6 -4 17 -4 24 0 16 10 78 12 78 2 0 -3 12 -3 28 0 35 9 94 8 110
-2 6 -4 17 -4 24 0 16 10 78 12 78 2 0 -3 12 -3 28 1 24 6 88 7 102 1 3 -1 10
-1 15 0 29 6 67 5 71 -2 3 -5 10 -5 17 -1 15 9 57 10 63 1 3 -4 15 -3 27 1 12
5 34 5 49 1 14 -5 29 -5 32 -2 9 8 76 9 76 0 0 -3 12 -3 28 0 35 9 94 8 110
-2 6 -4 17 -4 24 0 16 10 78 12 78 2 0 -3 12 -3 28 0 35 9 94 8 110 -2 6 -4
17 -4 24 0 16 10 78 12 78 2 0 -3 12 -3 28 1 24 6 88 7 102 1 3 -1 10 -1 15 0
29 6 67 5 71 -2 3 -5 10 -5 17 -1 15 9 57 10 63 1 3 -4 15 -3 27 1 12 5 34 5
49 1 14 -5 29 -5 32 -2 9 8 76 9 76 0 0 -3 12 -3 28 0 35 9 94 8 110 -2 6 -4
17 -4 24 0 16 10 78 12 78 2 0 -3 12 -3 28 0 35 9 94 8 110 -2 6 -4 17 -4 24
0 16 10 78 12 84 2 3 -4 15 -3 28 2 13 5 27 6 32 2 4 -4 5 -2 2 3 -3 6 -46 93
-95 195 -154 315 -326 665 -444 905 -62 127 -113 232 -114 235 0 3 -49 104
-109 225 -59 121 -135 276 -168 345 -33 69 -64 132 -69 140 -5 8 -13 24 -18
35 -5 11 -53 110 -107 220 -54 110 -99 202 -99 205 0 3 -38 81 -84 174 -226
459 -351 720 -352 733 0 5 -6 15 -13 23 -15 17 -30 52 -28 63 1 4 -3 7 -8 7
-5 0 -9 3 -8 8 1 4 -38 88 -86 187 -128 262 -186 383 -186 393 0 4 -6 14 -12
20 -7 7 -13 16 -13 20 -1 6 -24 56 -161 337 -27 55 -49 102 -50 105 0 3 -33
73 -73 155 -97 199 -164 339 -166 345 -1 3 -25 55 -54 115 -90 186 -141 297
-141 303 0 12 -55 89 -94 130 l-40 42 564 0 c311 -1 575 1 588 4 12 3 54 8 92
11 38 3 80 8 92 11 13 3 32 7 44 9 20 3 134 27 144 30 3 1 20 6 38 10 18 4 35
12 38 16 3 5 12 9 20 9 19 0 144 60 162 77 8 7 23 18 34 24 50 27 156 134 208
210 103 149 158 317 164 499 1 36 -2 85 -6 110 -5 25 -11 59 -14 75 -12 73
-68 204 -122 290 -30 46 -147 166 -207 212 -95 71 -296 163 -359 163 -12 0
-26 3 -30 7 -4 4 -17 8 -29 9 -12 0 -47 4 -77 7 -139 17 -200 19 -580 23 -223
2 -421 4 -440 6 -20 1 -41 -1 -48 -6 -7 -4 -12 -4 -12 1 0 4 -45 9 -99 9 -95
2 -99 1 -88 -17 17 -27 5 -31 -44 -15 -70 23 -169 38 -169 26 0 -3 -17 -5 -37
-5 -103 -2 -187 -22 -338 -81 -11 -4 -24 -9 -30 -9 -5 -1 -26 -9 -46 -18 -19
-9 -47 -19 -62 -22 -15 -4 -29 -11 -32 -15 -3 -5 10 -56 30 -114 19 -58 35
-108 35 -111 0 -6 -24 18 -61 62 -42 49 -234 183 -263 183 -9 0 -16 4 -16 9 0
12 -143 62 -218 76 -12 2 -30 6 -40 9 -9 2 -53 8 -97 12 -44 3 -96 8 -115 9
-19 2 -241 5 -492 7 -252 2 -458 6 -458 10 0 4 -11 3 -24 -2 -13 -5 -27 -6
-31 -2 -10 10 -105 10 -105 0 0 -10 -370 -6 -407 4 -81 23 -296 25 -448 4 -92
-13 -265 -64 -265 -78 0 -5 -7 -8 -15 -8 -18 0 -77 -32 -136 -76 l-46 -34 -24
20 c-13 11 -29 24 -36 30 -7 5 -16 10 -22 10 -5 0 -33 13 -63 28 -50 27 -90
41 -128 47 -8 1 -28 5 -45 9 -111 24 -256 33 -485 30 -201 -2 -247 -5 -310
-20 -56 -12 -92 -15 -108 -8 -20 8 -29 11 -60 18 -13 3 -33 8 -45 12 -12 4
-640 6 -1396 6 l-1373 -2 -43 44 c-45 44 -116 84 -170 94 -16 3 -193 6 -391 6
-282 1 -368 -2 -390 -13 -16 -7 -45 -20 -64 -30 -19 -9 -47 -27 -62 -41 -45
-41 -52 -45 -78 -46 -14 -1 -45 -4 -70 -8 -39 -5 -48 -3 -81 24 -21 17 -41 30
-44 30 -3 0 -16 9 -28 20 -12 12 -53 31 -92 43 -67 20 -86 21 -510 21 l-440 0
-63 -31 -64 -31 -29 47 c-15 25 -33 51 -39 58 -5 7 -10 15 -10 18 0 7 -79 112
-111 150 -86 99 -216 221 -329 309 -48 36 -187 119 -261 154 -71 34 -188 83
-209 87 -3 1 -25 7 -50 14 -25 7 -45 12 -45 11 0 -1 -13 3 -28 9 -26 10 -57
17 -117 26 -14 2 -36 7 -50 11 -27 7 -453 17 -461 10z m2787 -1691 c13 -197 7
-485 -10 -502 -2 -2 -4 31 -3 74 0 43 -1 166 -2 273 -3 232 -2 275 3 269 3 -3
8 -54 12 -114z m8158 -167 c-3 -4 -1 -8 5 -8 5 0 8 -8 6 -17 -2 -10 -4 -22 -4
-28 -1 -5 -15 -25 -31 -44 -25 -28 -30 -30 -31 -15 -1 23 -1 108 0 148 l1 30
30 -29 c16 -15 27 -32 24 -37z m2644 -8 c9 -24 6 -35 -16 -69 -43 -67 -52 -62
-52 33 0 45 3 85 6 89 11 11 52 -24 62 -53z m-11724 -525 c9 -66 19 -109 30
-140 68 -183 153 -295 288 -382 56 -36 178 -93 200 -93 9 0 19 -4 23 -10 3 -5
13 -6 22 -3 32 13 6 -21 -33 -42 -162 -87 -413 -296 -516 -430 -12 -16 -28
-34 -34 -40 -6 -5 -26 -32 -45 -60 -19 -27 -37 -51 -41 -53 -5 -2 -8 -7 -8
-12 0 -4 -18 -39 -40 -76 -31 -54 -40 -63 -40 -44 -1 14 -1 257 -1 541 l0 515
69 135 c38 73 79 158 91 187 12 30 24 52 26 50 1 -1 5 -21 9 -43z m10321 15
c3 -5 -3 -26 -13 -47 -19 -36 -20 -37 -28 -12 -4 13 -8 26 -9 29 0 3 -3 10 -7
16 -4 6 -5 14 -1 18 10 10 51 7 58 -4z m-6922 -210 c22 -26 21 -29 -2 -27 -12
1 -21 10 -24 24 -5 28 3 29 26 3z m764 -7 c-3 -5 -8 -30 -11 -57 -9 -64 -11
-67 -45 -55 l-29 10 40 55 c23 30 43 54 45 54 2 0 2 -3 0 -7z m3213 -191 c0
-4 99 -7 220 -7 121 0 220 -1 220 -3 0 -2 -21 -25 -46 -51 -26 -25 -59 -71
-73 -101 -15 -30 -33 -66 -41 -80 -8 -14 -15 -27 -15 -30 0 -3 -22 -49 -48
-103 -26 -54 -47 -102 -47 -107 0 -6 -4 -10 -10 -10 -6 0 -9 -3 -8 -7 1 -5
-10 -34 -25 -66 -15 -32 -27 -62 -27 -67 0 -6 -4 -10 -9 -10 -5 0 -11 -9 -14
-20 -3 -11 -6 -24 -8 -28 -2 -8 -53 -111 -76 -154 -8 -16 -11 -28 -6 -28 4 0
3 -4 -4 -8 -9 -6 -36 -59 -73 -144 -5 -13 -14 -30 -19 -38 -5 -8 -22 -44 -39
-80 -17 -36 -49 -103 -71 -150 -23 -47 -41 -89 -41 -94 0 -5 -7 -17 -16 -27
-8 -9 -17 -23 -18 -31 -1 -7 -16 -40 -31 -73 -16 -33 -28 -63 -27 -67 1 -5 -3
-8 -8 -8 -6 0 -10 -4 -10 -9 0 -5 -29 -69 -64 -143 -35 -73 -79 -167 -99 -208
-183 -389 -180 -383 -192 -392 -5 -4 -6 -8 -2 -8 5 0 -3 -20 -17 -44 -14 -25
-26 -52 -26 -60 0 -9 -4 -16 -10 -16 -5 0 -10 -5 -10 -11 0 -7 -21 -55 -46
-108 -26 -53 -67 -139 -91 -191 -63 -133 -127 -267 -186 -390 -28 -58 -52
-107 -52 -110 -3 -15 -64 -133 -65 -125 -13 98 -77 321 -102 353 -6 6 -8 12
-5 12 11 0 -84 174 -138 255 -30 44 -71 99 -92 122 -101 111 -132 143 -137
143 -4 0 -42 28 -84 63 -84 68 -195 149 -233 170 -13 7 -42 24 -64 38 -62 40
-196 109 -210 109 -8 0 -15 4 -17 8 -1 4 -54 28 -115 52 -62 24 -113 47 -113
50 0 3 46 5 103 5 56 0 105 1 109 3 4 1 67 5 140 7 260 9 373 15 403 22 17 4
33 7 37 7 3 1 10 4 14 9 4 4 14 7 21 7 21 0 119 65 157 105 58 59 91 138 102
240 8 75 8 70 -5 130 -6 28 -14 61 -17 75 -3 14 -12 50 -21 80 -9 30 -18 60
-19 65 -30 120 -199 446 -279 539 -14 15 -25 32 -25 38 0 12 -287 298 -300
298 -6 0 -21 9 -33 21 -21 20 -130 94 -192 131 -79 47 -250 128 -335 160 -52
20 -104 39 -115 44 -11 4 -22 8 -25 9 -3 1 -12 5 -20 8 -8 3 -31 10 -50 16
-43 11 2055 8 2145 -4 33 -4 93 -8 132 -9 40 0 73 -3 73 -6 0 -3 59 -5 130 -5
72 0 130 2 130 5 0 3 21 5 48 6 66 0 201 20 211 30 7 7 21 5 21 -4z m-4530
-1435 c30 -4 66 -9 80 -12 14 -4 38 -8 53 -11 15 -2 37 -8 47 -14 11 -6 20 -8
20 -5 0 8 112 -44 151 -71 22 -15 40 -38 47 -60 11 -36 11 -36 -16 -29 -15 4
-40 9 -57 12 -16 2 -70 11 -120 19 -49 9 -106 17 -125 20 -19 2 -46 6 -60 9
-14 3 -41 7 -60 10 -89 11 -185 29 -295 57 -66 16 -125 31 -132 32 -42 8 8 27
105 40 19 2 35 6 37 8 6 5 266 1 325 -5z m-3010 -880 c0 -8 68 -114 85 -133 6
-6 17 -22 25 -34 37 -55 158 -183 245 -260 53 -47 187 -141 250 -175 28 -14
82 -44 120 -66 104 -58 275 -139 292 -139 6 0 13 -4 15 -8 3 -7 40 -23 203
-83 28 -10 41 -19 30 -19 -11 -1 -49 -3 -85 -5 -113 -6 -292 -16 -365 -20 -38
-3 -126 -7 -195 -10 -69 -4 -154 -8 -190 -9 -36 -2 -142 -7 -236 -10 -93 -4
-182 -9 -197 -10 -26 -3 -27 -1 -27 43 -1 25 0 197 0 381 1 184 1 340 1 345 0
6 -1 42 -1 80 -1 39 -1 94 -1 124 1 50 2 53 16 35 8 -10 15 -22 15 -27z m9267
-227 c3 -8 7 -19 9 -25 2 -5 31 -82 64 -170 34 -88 63 -164 64 -170 1 -5 10
-27 19 -49 9 -21 17 -44 17 -52 0 -7 5 -16 10 -19 6 -4 8 -10 6 -14 -6 -10
-416 -11 -416 -1 0 3 27 74 60 156 33 82 62 156 64 164 4 18 33 89 46 112 6
10 10 22 10 28 0 23 32 85 37 70 2 -8 7 -22 10 -30z m-7012 -949 c22 -5 56
-12 75 -15 19 -3 46 -8 60 -11 14 -3 41 -8 60 -11 19 -3 60 -12 90 -19 30 -8
69 -16 85 -19 17 -2 50 -8 75 -12 25 -4 54 -8 65 -10 11 -1 20 -3 20 -4 0 -1
11 -3 25 -6 29 -5 307 -63 333 -70 9 -2 25 -6 35 -8 9 -2 53 -14 97 -25 44
-12 85 -23 92 -24 7 -2 16 -6 19 -10 4 -4 14 -7 22 -7 27 0 158 -71 196 -106
31 -29 35 -37 26 -54 -12 -22 -108 -90 -127 -90 -7 0 -13 -5 -13 -12 0 -6 -3
-9 -6 -6 -3 4 -21 0 -40 -8 -19 -8 -34 -12 -34 -9 0 2 -11 0 -26 -5 -14 -6
-37 -12 -52 -15 -15 -3 -38 -7 -52 -10 -57 -12 -325 -24 -325 -15 0 1 -24 3
-52 5 -29 2 -67 6 -85 10 -18 3 -45 7 -59 10 -145 22 -295 92 -380 178 -59 59
-139 194 -139 235 0 10 -5 23 -12 30 -7 7 -9 12 -6 12 4 0 -2 25 -12 55 -21
60 -21 60 45 46z"/>
</g>
</svg>
